<?xml version="1.0" encoding="UTF-8"?>
<svg width="112px" height="44px" viewBox="0 0 112 44" version="1.1" xmlns="http://www.w3.org/2000/svg" xmlns:xlink="http://www.w3.org/1999/xlink">
    <g transform="translate(3.000000, 3.000000)">
        <path d="M97.0264018,0.5 L8.9735982,0.5 C5.99488122,0.5 4.90769924,0.792472871 3.81683947,1.37587106 C2.76452179,1.93865672 1.93865672,2.76452179 1.37587106,3.81683947 C0.792472871,4.90769924 0.5,5.99488122 0.5,8.9735982 L0.5,29.0264018 C0.5,32.0051188 0.792472871,33.0923008 1.37587106,34.1831605 C1.93865672,35.2354782 2.76452179,36.0613433 3.81683947,36.6241289 C4.90769924,37.2075271 5.99488122,37.5 8.9735982,37.5 L97.0264018,37.5 C100.005119,37.5 101.092301,37.2075271 102.183161,36.6241289 C103.235478,36.0613433 104.061343,35.2354782 104.624129,34.1831605 C105.207527,33.0923008 105.5,32.0051188 105.5,29.0264018 L105.5,8.9735982 C105.5,5.99488122 105.207527,4.90769924 104.624129,3.81683947 C104.061343,2.76452179 103.235478,1.93865672 102.183161,1.37587106 C101.092301,0.792472871 100.005119,0.5 97.0264018,0.5 Z" stroke-opacity="0.15" stroke="#FFFFFF" fill="#333333"></path>
        <path d="M36.764,28.5 C37.5,28.5 38.2413333,28.3906667 38.988,28.172 C39.7346667,27.9533333 40.4066667,27.6146667 41.004,27.156 C41.6013333,26.6973333 42.0866667,26.1106667 42.46,25.396 C42.8333333,24.6813333 43.02,23.828 43.02,22.836 C43.02,21.7693333 42.8333333,20.876 42.46,20.156 C42.0866667,19.436 41.6013333,18.8546667 41.004,18.412 C40.4066667,17.9693333 39.7346667,17.652 38.988,17.46 C38.2413333,17.268 37.5,17.172 36.764,17.172 L36.764,17.172 L32.748,17.172 L32.748,28.5 L36.764,28.5 Z M36.444,26.74 L34.764,26.74 L34.764,18.9 L36.444,18.9 C36.9666667,18.9 37.4893333,18.9533333 38.012,19.06 C38.5346667,19.1666667 39.0066667,19.364 39.428,19.652 C39.8493333,19.94 40.1933333,20.34 40.46,20.852 C40.7266667,21.364 40.86,22.0253333 40.86,22.836 C40.86,23.604 40.7266667,24.2386667 40.46,24.74 C40.1933333,25.2413333 39.8493333,25.6386667 39.428,25.932 C39.0066667,26.2253333 38.5346667,26.4333333 38.012,26.556 C37.4893333,26.6786667 36.9666667,26.74 36.444,26.74 L36.444,26.74 Z M47.212,28.692 C47.756,28.692 48.2413333,28.5826667 48.668,28.364 C49.0946667,28.1453333 49.404,27.8653333 49.596,27.524 L49.596,27.524 L49.644,27.524 L49.644,28.5 L51.436,28.5 L51.436,23.828 C51.436,23.444 51.3853333,23.06 51.284,22.676 C51.1826667,22.292 51.004,21.9453333 50.748,21.636 C50.492,21.3266667 50.1426667,21.076 49.7,20.884 C49.2573333,20.692 48.6946667,20.596 48.012,20.596 C47.4253333,20.596 46.8466667,20.6973333 46.276,20.9 C45.7053333,21.1026667 45.2013333,21.4066667 44.764,21.812 L44.764,21.812 L45.756,22.98 C46.0013333,22.7346667 46.3106667,22.5266667 46.684,22.356 C47.0573333,22.1853333 47.4466667,22.1 47.852,22.1 C48.332,22.1 48.7453333,22.2146667 49.092,22.444 C49.4386667,22.6733333 49.612,23.028 49.612,23.508 L49.612,23.508 L49.612,23.7 C49.0146667,23.7 48.404,23.7293333 47.78,23.788 C47.156,23.8466667 46.588,23.9666667 46.076,24.148 C45.564,24.3293333 45.1453333,24.5906667 44.82,24.932 C44.4946667,25.2733333 44.332,25.732 44.332,26.308 C44.332,26.756 44.4253333,27.132 44.612,27.436 C44.7986667,27.74 45.0333333,27.9853333 45.316,28.172 C45.5986667,28.3586667 45.908,28.492 46.244,28.572 C46.58,28.652 46.9026667,28.692 47.212,28.692 Z M47.596,27.236 C47.436,27.236 47.276,27.22 47.116,27.188 C46.956,27.156 46.812,27.1026667 46.684,27.028 C46.556,26.9533333 46.452,26.8546667 46.372,26.732 C46.292,26.6093333 46.252,26.4573333 46.252,26.276 C46.252,25.988 46.348,25.7613333 46.54,25.596 C46.732,25.4306667 46.972,25.3026667 47.26,25.212 C47.548,25.1213333 47.8626667,25.0626667 48.204,25.036 C48.5453333,25.0093333 48.8706667,24.996 49.18,24.996 L49.18,24.996 L49.612,24.996 L49.612,25.268 C49.612,25.876 49.4413333,26.356 49.1,26.708 C48.7586667,27.06 48.2573333,27.236 47.596,27.236 Z M55.596,28.5 L55.596,24.388 C55.596,24.2493333 55.6226667,24.0626667 55.676,23.828 C55.7293333,23.5933333 55.8306667,23.364 55.98,23.14 C56.1293333,22.916 56.3373333,22.724 56.604,22.564 C56.8706667,22.404 57.2226667,22.324 57.66,22.324 C57.7453333,22.324 57.8333333,22.3293333 57.924,22.34 C58.0146667,22.3506667 58.124,22.372 58.252,22.404 L58.252,22.404 L58.252,20.644 C58.188,20.6226667 58.1133333,20.6093333 58.028,20.604 C57.9426667,20.5986667 57.8626667,20.596 57.788,20.596 C57.276,20.596 56.828,20.7346667 56.444,21.012 C56.06,21.2893333 55.7613333,21.652 55.548,22.1 L55.548,22.1 L55.516,22.1 L55.516,20.82 L53.676,20.82 L53.676,28.5 L55.596,28.5 Z M61.452,28.5 L61.452,24.564 L61.5,24.564 L64.54,28.5 L67.084,28.5 L63.548,24.292 L66.876,20.82 L64.412,20.82 L61.5,24.052 L61.452,24.052 L61.452,16.404 L59.532,16.404 L59.532,28.5 L61.452,28.5 Z M75.324,28.788 C75.8786667,28.788 76.4066667,28.7133333 76.908,28.564 C77.4093333,28.4146667 77.8466667,28.1906667 78.22,27.892 C78.5933333,27.5933333 78.892,27.2173333 79.116,26.764 C79.34,26.3106667 79.452,25.78 79.452,25.172 C79.452,24.6173333 79.348,24.1533333 79.14,23.78 C78.932,23.4066667 78.6653333,23.0973333 78.34,22.852 C78.0146667,22.6066667 77.6573333,22.4093333 77.268,22.26 C76.8786667,22.1106667 76.5026667,21.9773333 76.14,21.86 C75.82,21.764 75.5266667,21.668 75.26,21.572 C74.9933333,21.476 74.7666667,21.364 74.58,21.236 C74.3933333,21.108 74.2466667,20.9533333 74.14,20.772 C74.0333333,20.5906667 73.98,20.372 73.98,20.116 C73.98,19.8386667 74.0413333,19.6013333 74.164,19.404 C74.2866667,19.2066667 74.444,19.0466667 74.636,18.924 C74.828,18.8013333 75.0413333,18.7106667 75.276,18.652 C75.5106667,18.5933333 75.7453333,18.564 75.98,18.564 C76.3746667,18.564 76.7666667,18.6573333 77.156,18.844 C77.5453333,19.0306667 77.8466667,19.2626667 78.06,19.54 L78.06,19.54 L79.372,18.1 C78.9346667,17.6946667 78.42,17.3906667 77.828,17.188 C77.236,16.9853333 76.652,16.884 76.076,16.884 C75.564,16.884 75.06,16.9506667 74.564,17.084 C74.068,17.2173333 73.6253333,17.42 73.236,17.692 C72.8466667,17.964 72.532,18.308 72.292,18.724 C72.052,19.14 71.932,19.636 71.932,20.212 C71.932,20.7453333 72.0173333,21.1906667 72.188,21.548 C72.3586667,21.9053333 72.58,22.2066667 72.852,22.452 C73.124,22.6973333 73.4306667,22.8946667 73.772,23.044 C74.1133333,23.1933333 74.4546667,23.3213333 74.796,23.428 C75.148,23.5453333 75.484,23.6573333 75.804,23.764 C76.124,23.8706667 76.4013333,23.996 76.636,24.14 C76.8706667,24.284 77.0573333,24.4546667 77.196,24.652 C77.3346667,24.8493333 77.404,25.0973333 77.404,25.396 C77.404,25.7053333 77.3426667,25.964 77.22,26.172 C77.0973333,26.38 76.9373333,26.5533333 76.74,26.692 C76.5426667,26.8306667 76.3213333,26.9293333 76.076,26.988 C75.8306667,27.0466667 75.5906667,27.076 75.356,27.076 C74.908,27.076 74.452,26.964 73.988,26.74 C73.524,26.516 73.1533333,26.212 72.876,25.828 L72.876,25.828 L71.436,27.172 C71.884,27.7053333 72.46,28.108 73.164,28.38 C73.868,28.652 74.588,28.788 75.324,28.788 Z M83.324,28.5 L83.324,24.564 L83.372,24.564 L86.412,28.5 L88.956,28.5 L85.42,24.292 L88.748,20.82 L86.284,20.82 L83.372,24.052 L83.324,24.052 L83.324,16.404 L81.404,16.404 L81.404,28.5 L83.324,28.5 Z M90.38,32.34 C90.8066667,32.34 91.172,32.292 91.476,32.196 C91.78,32.1 92.044,31.9586667 92.268,31.772 C92.492,31.5853333 92.684,31.356 92.844,31.084 C93.004,30.812 93.1533333,30.5 93.292,30.148 L93.292,30.148 L96.924,20.82 L94.924,20.82 L93.02,26.404 L92.988,26.404 L90.844,20.82 L88.716,20.82 L92.012,28.5 L91.628,29.476 C91.5426667,29.6786667 91.4626667,29.8546667 91.388,30.004 C91.3133333,30.1533333 91.228,30.2786667 91.132,30.38 C91.036,30.4813333 90.9186667,30.556 90.78,30.604 C90.6413333,30.652 90.4706667,30.676 90.268,30.676 C90.1613333,30.676 90.0466667,30.668 89.924,30.652 C89.8013333,30.636 89.676,30.6066667 89.548,30.564 L89.548,30.564 L89.388,32.228 C89.5586667,32.2706667 89.7266667,32.3 89.892,32.316 C90.0573333,32.332 90.22,32.34 90.38,32.34 Z" fill="#FFFFFF"></path>
        <path d="M33.632,12 L33.632,9.656 L34.408,9.656 C34.7066667,9.656 34.9893333,9.62666667 35.256,9.568 C35.5226667,9.50933333 35.756,9.41466667 35.956,9.284 C36.156,9.15333333 36.3146667,8.98133333 36.432,8.768 C36.5493333,8.55466667 36.608,8.29066667 36.608,7.976 C36.608,7.68266667 36.5573333,7.432 36.456,7.224 C36.3546667,7.016 36.2106667,6.84533333 36.024,6.712 C35.8373333,6.57866667 35.6133333,6.48266667 35.352,6.424 C35.0906667,6.36533333 34.7973333,6.336 34.472,6.336 L34.472,6.336 L32.624,6.336 L32.624,12 L33.632,12 Z M34.336,8.808 L33.632,8.808 L33.632,7.184 L34.368,7.184 C34.5226667,7.184 34.6733333,7.19333333 34.82,7.212 C34.9666667,7.23066667 35.0973333,7.26933333 35.212,7.328 C35.3266667,7.38666667 35.4186667,7.468 35.488,7.572 C35.5573333,7.676 35.592,7.81066667 35.592,7.976 C35.592,8.14666667 35.5573333,8.28533333 35.488,8.392 C35.4186667,8.49866667 35.3253333,8.58266667 35.208,8.644 C35.0906667,8.70533333 34.9573333,8.748 34.808,8.772 C34.6586667,8.796 34.5013333,8.808 34.336,8.808 L34.336,8.808 Z M38.8,12.112 C39.088,12.112 39.36,12.0613333 39.616,11.96 C39.872,11.8586667 40.0933333,11.7186667 40.28,11.54 C40.4666667,11.3613333 40.6146667,11.1466667 40.724,10.896 C40.8333333,10.6453333 40.888,10.368 40.888,10.064 C40.888,9.76 40.8333333,9.484 40.724,9.236 C40.6146667,8.988 40.4666667,8.776 40.28,8.6 C40.0933333,8.424 39.872,8.288 39.616,8.192 C39.36,8.096 39.088,8.048 38.8,8.048 C38.512,8.048 38.24,8.096 37.984,8.192 C37.728,8.288 37.5066667,8.424 37.32,8.6 C37.1333333,8.776 36.9853333,8.988 36.876,9.236 C36.7666667,9.484 36.712,9.76 36.712,10.064 C36.712,10.368 36.7666667,10.6453333 36.876,10.896 C36.9853333,11.1466667 37.1333333,11.3613333 37.32,11.54 C37.5066667,11.7186667 37.728,11.8586667 37.984,11.96 C38.24,12.0613333 38.512,12.112 38.8,12.112 Z M38.8,11.312 C38.608,11.312 38.4426667,11.2746667 38.304,11.2 C38.1653333,11.1253333 38.0506667,11.0293333 37.96,10.912 C37.8693333,10.7946667 37.8013333,10.6613333 37.756,10.512 C37.7106667,10.3626667 37.688,10.2133333 37.688,10.064 C37.688,9.91466667 37.7106667,9.76666667 37.756,9.62 C37.8013333,9.47333333 37.8693333,9.34133333 37.96,9.224 C38.0506667,9.10666667 38.1653333,9.012 38.304,8.94 C38.4426667,8.868 38.608,8.832 38.8,8.832 C38.992,8.832 39.1573333,8.868 39.296,8.94 C39.4346667,9.012 39.5493333,9.10666667 39.64,9.224 C39.7306667,9.34133333 39.7986667,9.47333333 39.844,9.62 C39.8893333,9.76666667 39.912,9.91466667 39.912,10.064 C39.912,10.2133333 39.8893333,10.3626667 39.844,10.512 C39.7986667,10.6613333 39.7306667,10.7946667 39.64,10.912 C39.5493333,11.0293333 39.4346667,11.1253333 39.296,11.2 C39.1573333,11.2746667 38.992,11.312 38.8,11.312 Z M43.584,12 L44.448,9.312 L44.464,9.312 L45.336,12 L46.312,12 L47.64,8.16 L46.64,8.16 L45.824,10.912 L45.808,10.912 L44.976,8.16 L43.952,8.16 L43.128,10.912 L43.112,10.912 L42.312,8.16 L41.272,8.16 L42.608,12 L43.584,12 Z M50.088,12.112 C50.808,12.112 51.3573333,11.856 51.736,11.344 L51.736,11.344 L51.096,10.832 C50.9893333,10.9866667 50.8533333,11.108 50.688,11.196 C50.5226667,11.284 50.32,11.328 50.08,11.328 C49.9413333,11.328 49.808,11.304 49.68,11.256 C49.552,11.208 49.4373333,11.1426667 49.336,11.06 C49.2346667,10.9773333 49.1533333,10.8786667 49.092,10.764 C49.0306667,10.6493333 48.9946667,10.5226667 48.984,10.384 L48.984,10.384 L51.904,10.384 C51.9093333,10.3413333 51.912,10.2986667 51.912,10.256 L51.912,10.256 L51.912,10.128 C51.912,9.78133333 51.8653333,9.47866667 51.772,9.22 C51.6786667,8.96133333 51.5493333,8.74533333 51.384,8.572 C51.2186667,8.39866667 51.0226667,8.268 50.796,8.18 C50.5693333,8.092 50.3226667,8.048 50.056,8.048 C49.768,8.048 49.5,8.09733333 49.252,8.196 C49.004,8.29466667 48.7893333,8.43333333 48.608,8.612 C48.4266667,8.79066667 48.284,9.00666667 48.18,9.26 C48.076,9.51333333 48.024,9.79466667 48.024,10.104 C48.024,10.4186667 48.076,10.7 48.18,10.948 C48.284,11.196 48.428,11.4053333 48.612,11.576 C48.796,11.7466667 49.0133333,11.8786667 49.264,11.972 C49.5146667,12.0653333 49.7893333,12.112 50.088,12.112 Z M50.952,9.696 L48.984,9.696 C49.0053333,9.424 49.116,9.20133333 49.316,9.028 C49.516,8.85466667 49.76,8.768 50.048,8.768 C50.2026667,8.768 50.3373333,8.79333333 50.452,8.844 C50.5666667,8.89466667 50.6613333,8.96266667 50.736,9.048 C50.8106667,9.13333333 50.8653333,9.232 50.9,9.344 C50.9346667,9.456 50.952,9.57333333 50.952,9.696 L50.952,9.696 Z M53.8,12 L53.8,9.944 C53.8,9.87466667 53.8133333,9.78133333 53.84,9.664 C53.8666667,9.54666667 53.9173333,9.432 53.992,9.32 C54.0666667,9.208 54.1706667,9.112 54.304,9.032 C54.4373333,8.952 54.6133333,8.912 54.832,8.912 C54.8746667,8.912 54.9186667,8.91466667 54.964,8.92 C55.0093333,8.92533333 55.064,8.936 55.128,8.952 L55.128,8.952 L55.128,8.072 C55.096,8.06133333 55.0586667,8.05466667 55.016,8.052 C54.9733333,8.04933333 54.9333333,8.048 54.896,8.048 C54.64,8.048 54.416,8.11733333 54.224,8.256 C54.032,8.39466667 53.8826667,8.576 53.776,8.8 L53.776,8.8 L53.76,8.8 L53.76,8.16 L52.84,8.16 L52.84,12 L53.8,12 Z M57.448,12.112 C58.168,12.112 58.7173333,11.856 59.096,11.344 L59.096,11.344 L58.456,10.832 C58.3493333,10.9866667 58.2133333,11.108 58.048,11.196 C57.8826667,11.284 57.68,11.328 57.44,11.328 C57.3013333,11.328 57.168,11.304 57.04,11.256 C56.912,11.208 56.7973333,11.1426667 56.696,11.06 C56.5946667,10.9773333 56.5133333,10.8786667 56.452,10.764 C56.3906667,10.6493333 56.3546667,10.5226667 56.344,10.384 L56.344,10.384 L59.264,10.384 C59.2693333,10.3413333 59.272,10.2986667 59.272,10.256 L59.272,10.256 L59.272,10.128 C59.272,9.78133333 59.2253333,9.47866667 59.132,9.22 C59.0386667,8.96133333 58.9093333,8.74533333 58.744,8.572 C58.5786667,8.39866667 58.3826667,8.268 58.156,8.18 C57.9293333,8.092 57.6826667,8.048 57.416,8.048 C57.128,8.048 56.86,8.09733333 56.612,8.196 C56.364,8.29466667 56.1493333,8.43333333 55.968,8.612 C55.7866667,8.79066667 55.644,9.00666667 55.54,9.26 C55.436,9.51333333 55.384,9.79466667 55.384,10.104 C55.384,10.4186667 55.436,10.7 55.54,10.948 C55.644,11.196 55.788,11.4053333 55.972,11.576 C56.156,11.7466667 56.3733333,11.8786667 56.624,11.972 C56.8746667,12.0653333 57.1493333,12.112 57.448,12.112 Z M58.312,9.696 L56.344,9.696 C56.3653333,9.424 56.476,9.20133333 56.676,9.028 C56.876,8.85466667 57.12,8.768 57.408,8.768 C57.5626667,8.768 57.6973333,8.79333333 57.812,8.844 C57.9266667,8.89466667 58.0213333,8.96266667 58.096,9.048 C58.1706667,9.13333333 58.2253333,9.232 58.26,9.344 C58.2946667,9.456 58.312,9.57333333 58.312,9.696 L58.312,9.696 Z M61.856,12.112 C62.128,12.112 62.3826667,12.0533333 62.62,11.936 C62.8573333,11.8186667 63.0426667,11.648 63.176,11.424 L63.176,11.424 L63.192,11.424 L63.192,12 L64.104,12 L64.104,5.952 L63.144,5.952 L63.144,8.648 L63.12,8.648 C63.072,8.584 63.0106667,8.51733333 62.936,8.448 C62.8613333,8.37866667 62.772,8.31466667 62.668,8.256 C62.564,8.19733333 62.4426667,8.148 62.304,8.108 C62.1653333,8.068 62.008,8.048 61.832,8.048 C61.56,8.048 61.3093333,8.1 61.08,8.204 C60.8506667,8.308 60.6533333,8.45066667 60.488,8.632 C60.3226667,8.81333333 60.1946667,9.02666667 60.104,9.272 C60.0133333,9.51733333 59.968,9.78133333 59.968,10.064 C59.968,10.3466667 60.012,10.612 60.1,10.86 C60.188,11.108 60.3133333,11.324 60.476,11.508 C60.6386667,11.692 60.836,11.8386667 61.068,11.948 C61.3,12.0573333 61.5626667,12.112 61.856,12.112 Z M62.048,11.312 C61.8613333,11.312 61.6986667,11.2746667 61.56,11.2 C61.4213333,11.1253333 61.3066667,11.0293333 61.216,10.912 C61.1253333,10.7946667 61.0573333,10.6613333 61.012,10.512 C60.9666667,10.3626667 60.944,10.2133333 60.944,10.064 C60.944,9.91466667 60.9666667,9.76666667 61.012,9.62 C61.0573333,9.47333333 61.1253333,9.34133333 61.216,9.224 C61.3066667,9.10666667 61.4213333,9.012 61.56,8.94 C61.6986667,8.868 61.8613333,8.832 62.048,8.832 C62.224,8.832 62.3813333,8.86933333 62.52,8.944 C62.6586667,9.01866667 62.7773333,9.11466667 62.876,9.232 C62.9746667,9.34933333 63.0493333,9.48266667 63.1,9.632 C63.1506667,9.78133333 63.176,9.93066667 63.176,10.08 C63.176,10.2293333 63.1506667,10.3773333 63.1,10.524 C63.0493333,10.6706667 62.9746667,10.8026667 62.876,10.92 C62.7773333,11.0373333 62.6586667,11.132 62.52,11.204 C62.3813333,11.276 62.224,11.312 62.048,11.312 Z M69.536,12.112 C69.8293333,12.112 70.092,12.0573333 70.324,11.948 C70.556,11.8386667 70.7533333,11.692 70.916,11.508 C71.0786667,11.324 71.204,11.108 71.292,10.86 C71.38,10.612 71.424,10.3466667 71.424,10.064 C71.424,9.78133333 71.3786667,9.51733333 71.288,9.272 C71.1973333,9.02666667 71.0693333,8.81333333 70.904,8.632 C70.7386667,8.45066667 70.5413333,8.308 70.312,8.204 C70.0826667,8.1 69.832,8.048 69.56,8.048 C69.384,8.048 69.2266667,8.068 69.088,8.108 C68.9493333,8.148 68.828,8.19733333 68.724,8.256 C68.62,8.31466667 68.5306667,8.37866667 68.456,8.448 C68.3813333,8.51733333 68.32,8.584 68.272,8.648 L68.272,8.648 L68.248,8.648 L68.248,5.952 L67.288,5.952 L67.288,12 L68.2,12 L68.2,11.424 L68.216,11.424 C68.3493333,11.648 68.5346667,11.8186667 68.772,11.936 C69.0093333,12.0533333 69.264,12.112 69.536,12.112 Z M69.344,11.312 C69.168,11.312 69.0106667,11.276 68.872,11.204 C68.7333333,11.132 68.6146667,11.0373333 68.516,10.92 C68.4173333,10.8026667 68.3426667,10.6706667 68.292,10.524 C68.2413333,10.3773333 68.216,10.2293333 68.216,10.08 C68.216,9.93066667 68.2413333,9.78133333 68.292,9.632 C68.3426667,9.48266667 68.4173333,9.34933333 68.516,9.232 C68.6146667,9.11466667 68.7333333,9.01866667 68.872,8.944 C69.0106667,8.86933333 69.168,8.832 69.344,8.832 C69.5306667,8.832 69.6933333,8.868 69.832,8.94 C69.9706667,9.012 70.0853333,9.10666667 70.176,9.224 C70.2666667,9.34133333 70.3346667,9.47333333 70.38,9.62 C70.4253333,9.76666667 70.448,9.91466667 70.448,10.064 C70.448,10.2133333 70.4253333,10.3626667 70.38,10.512 C70.3346667,10.6613333 70.2666667,10.7946667 70.176,10.912 C70.0853333,11.0293333 69.9706667,11.1253333 69.832,11.2 C69.6933333,11.2746667 69.5306667,11.312 69.344,11.312 Z M72.608,13.92 C72.8213333,13.92 73.004,13.896 73.156,13.848 C73.308,13.8 73.44,13.7293333 73.552,13.636 C73.664,13.5426667 73.76,13.428 73.84,13.292 C73.92,13.156 73.9946667,13 74.064,12.824 L74.064,12.824 L75.88,8.16 L74.88,8.16 L73.928,10.952 L73.912,10.952 L72.84,8.16 L71.776,8.16 L73.424,12 L73.232,12.488 C73.1893333,12.5893333 73.1493333,12.6773333 73.112,12.752 C73.0746667,12.8266667 73.032,12.8893333 72.984,12.94 C72.936,12.9906667 72.8773333,13.028 72.808,13.052 C72.7386667,13.076 72.6533333,13.088 72.552,13.088 C72.4986667,13.088 72.4413333,13.084 72.38,13.076 C72.3186667,13.068 72.256,13.0533333 72.192,13.032 L72.192,13.032 L72.112,13.864 C72.1973333,13.8853333 72.2813333,13.9 72.364,13.908 C72.4466667,13.916 72.528,13.92 72.608,13.92 Z" fill="#FFFFFF"></path>
        <path d="M12.1915584,11.7413793 C11.9636364,12.3490025 11.5837662,13.4670292 11.3811688,14.6579708 C11.0519481,16.4565355 11.1532468,18.328015 11.1532468,18.328015 L11.1532468,18.328015 L12.4954545,17.8176115 C12.4954545,17.8176115 12.3181818,19.3731269 12.4954545,20.9286424 C12.6727273,22.5327676 13.1538961,24.112588 13.1538961,24.112588 L13.1538961,24.112588 L14.1668831,23.5535747 C14.1668831,23.5535747 14.3441558,25.4493591 15.0025974,27.1020942 C15.5344156,28.4388653 16.3448052,29.6784167 16.75,30.2860399 C16.4967532,30.3103448 16.2435065,30.3103448 15.9902597,30.3103448 C11.0266234,30.3103448 7,26.4458612 7,21.6577902 C7,17.9391361 9.32987013,14.925325 12.0649351,11.8872089 C12.1155844,11.838599 12.1662338,11.7899892 12.1915584,11.7413793 Z M18.8006404,10.0344828 C19.0536689,10.3991006 19.3320003,10.8123342 19.6356345,11.2498757 C22.0647082,14.7258994 25.0251418,17.7643816 24.9998389,21.6536389 C24.9492332,26.1505927 21.4321369,29.8210792 16.9029265,30.2586207 C16.6752009,29.4564614 16.2197496,27.463217 16.2703553,25.2512019 C16.320961,22.7231847 16.9282294,20.5597853 16.9282294,20.5597853 L16.9282294,20.5597853 L15.5618754,21.1674818 C15.5618754,21.1674818 15.5112697,19.4902396 15.9920239,17.9345366 C16.4605952,16.2689982 17.384722,14.66598 17.5190586,14.4376346 L17.5354978,14.4098972 L15.5618754,14.9932858 C15.5618754,14.9932858 16.0679325,13.58343 16.9535322,12.2951136 C17.5608007,11.3957228 18.2945834,10.5449478 18.8006404,10.0344828 Z M15.942783,6 C16.3492524,6.43891626 17.1875954,7.65812808 18.5086207,9.58448276 C17.771895,9.63325123 16.704913,9.75517241 15.6633354,10.023399 C14.4693317,10.3160099 13.3261367,10.8280788 12.7672414,11.1206897 C15.7256915,7.65258621 15.9296085,6.13965517 15.9420339,6.00928149 Z" fill="#FFFFFF"></path>
    </g>
</svg>